<svg xmlns="http://www.w3.org/2000/svg" xmlns:xlink="http://www.w3.org/1999/xlink" width="227" zoomAndPan="magnify" viewBox="0 0 170.25 170.250002" height="227" preserveAspectRatio="xMidYMid meet" version="1.0"><defs><clipPath id="7806768108"><path d="M 0.394531 0.394531 L 151.105469 0.394531 L 151.105469 151.105469 L 0.394531 151.105469 Z M 0.394531 0.394531 " clip-rule="nonzero"/></clipPath><clipPath id="dc9f71feaa"><path d="M 75.75 0.394531 C 34.132812 0.394531 0.394531 34.132812 0.394531 75.75 C 0.394531 117.371094 34.132812 151.105469 75.75 151.105469 C 117.371094 151.105469 151.105469 117.371094 151.105469 75.75 C 151.105469 34.132812 117.371094 0.394531 75.75 0.394531 Z M 75.75 0.394531 " clip-rule="nonzero"/></clipPath><clipPath id="98ccee58c7"><path d="M 0.394531 0.394531 L 151.105469 0.394531 L 151.105469 151.105469 L 0.394531 151.105469 Z M 0.394531 0.394531 " clip-rule="nonzero"/></clipPath><clipPath id="e454669462"><path d="M 75.75 0.394531 C 34.132812 0.394531 0.394531 34.132812 0.394531 75.75 C 0.394531 117.371094 34.132812 151.105469 75.75 151.105469 C 117.371094 151.105469 151.105469 117.371094 151.105469 75.75 C 151.105469 34.132812 117.371094 0.394531 75.75 0.394531 Z M 75.75 0.394531 " clip-rule="nonzero"/></clipPath><clipPath id="1d5c8369e8"><rect x="0" width="152" y="0" height="152"/></clipPath><clipPath id="2a7c6e9642"><rect x="0" width="152" y="0" height="152"/></clipPath></defs><g transform="matrix(1, 0, 0, 1, 9, 9)"><g clip-path="url(#2a7c6e9642)"><g clip-path="url(#7806768108)"><g clip-path="url(#dc9f71feaa)"><g transform="matrix(1, 0, 0, 1, 0, -0.000000000000001776)"><g clip-path="url(#1d5c8369e8)"><g clip-path="url(#98ccee58c7)"><g clip-path="url(#e454669462)"><path fill="#ffde59" d="M 0.394531 0.394531 L 151.105469 0.394531 L 151.105469 151.105469 L 0.394531 151.105469 Z M 0.394531 0.394531 " fill-opacity="1" fill-rule="nonzero"/></g></g></g></g></g></g><path fill="#126298" d="M 37.28125 27.539062 C 35.78125 27.816406 34.785156 28.140625 33.574219 28.746094 C 30.003906 30.542969 27.40625 33.753906 26.21875 37.828125 L 25.835938 39.140625 L 25.796875 62.738281 C 25.769531 77.855469 25.800781 86.710938 25.890625 87.382812 C 26.515625 92.140625 30.292969 96.433594 35.152344 97.914062 C 35.796875 98.109375 36.757812 98.332031 37.289062 98.40625 C 38.628906 98.597656 64.472656 98.597656 66.359375 98.40625 C 68.25 98.210938 70.066406 97.8125 71.96875 97.171875 C 72.824219 96.882812 73.507812 96.6875 73.480469 96.734375 C 72.773438 98.039062 72.617188 99.886719 73.09375 101.300781 C 73.796875 103.371094 75.546875 104.898438 77.492188 105.128906 C 77.867188 105.171875 78.234375 105.25 78.300781 105.296875 C 78.371094 105.34375 78.542969 105.691406 78.6875 106.070312 C 79.015625 106.957031 80.230469 108.238281 81.167969 108.699219 C 83.359375 109.769531 86.164062 109.242188 87.871094 107.433594 C 88.902344 106.34375 89.289062 105.402344 89.359375 103.804688 C 89.414062 102.628906 89.4375 102.527344 89.621094 102.769531 C 90.082031 103.382812 90.679688 104.761719 91.394531 106.867188 C 92.726562 110.792969 93.578125 112.128906 96.058594 114.199219 C 97.765625 115.621094 98.1875 116.058594 99.402344 117.664062 C 100.277344 118.824219 101.1875 120.296875 102.292969 122.34375 C 103.480469 124.546875 104.148438 125.039062 105.945312 125.042969 C 108.492188 125.042969 114.207031 123.289062 118.738281 121.113281 C 121.277344 119.894531 122.992188 118.796875 124.046875 117.71875 C 125.28125 116.457031 125.390625 115.695312 124.65625 113.449219 C 124.394531 112.65625 124.058594 111.507812 123.90625 110.902344 C 123.175781 107.996094 122.890625 102.523438 122.933594 92.132812 C 122.957031 86.046875 122.929688 84.796875 122.746094 83.90625 C 122.257812 81.5625 121.183594 79.609375 119.09375 77.265625 C 118.03125 76.070312 117.191406 75.257812 110.335938 68.777344 C 106.429688 65.089844 105.835938 64.441406 105.65625 63.671875 C 105.589844 63.386719 105.535156 57.90625 105.535156 51.492188 C 105.53125 44.128906 105.480469 39.5 105.390625 38.933594 C 105.097656 37.101562 104.425781 35.453125 103.25 33.679688 C 101.273438 30.695312 98.433594 28.683594 94.835938 27.710938 L 93.730469 27.414062 L 65.992188 27.386719 C 43.84375 27.367188 38.058594 27.398438 37.28125 27.539062 M 38.390625 30.03125 C 36.292969 30.378906 34.699219 31.042969 33.109375 32.238281 C 31.542969 33.414062 30.027344 35.484375 29.289062 37.453125 C 28.492188 39.574219 28.515625 38.726562 28.558594 63.988281 L 28.597656 87.164062 L 28.914062 88.195312 C 29.488281 90.054688 30.242188 91.308594 31.625 92.699219 C 32.707031 93.785156 33.0625 94.046875 34.320312 94.667969 C 35.371094 95.191406 36.140625 95.464844 37.125 95.664062 C 38.4375 95.929688 38.949219 95.9375 52.445312 95.898438 L 66.40625 95.855469 L 67.914062 95.539062 C 71.339844 94.8125 74.855469 93.265625 78.320312 90.953125 C 80.132812 89.746094 82.890625 87.550781 83.011719 87.21875 C 83.039062 87.152344 82.789062 86.792969 82.460938 86.429688 C 81.253906 85.085938 79.496094 82.785156 78.789062 81.617188 C 77.207031 79.015625 76.929688 76.476562 77.992188 74.324219 C 78.605469 73.074219 79.78125 71.929688 81.0625 71.328125 C 81.863281 70.953125 82.191406 70.882812 83.3125 70.835938 C 86.25 70.71875 87.859375 71.800781 93.738281 77.828125 L 95.710938 79.851562 L 96.09375 79.644531 C 96.304688 79.527344 96.742188 79.09375 97.070312 78.675781 C 98.320312 77.078125 98.542969 76.882812 99.117188 76.882812 C 99.710938 76.882812 99.265625 76.46875 104.636719 82.003906 C 106.410156 83.832031 107.613281 84.957031 108 85.15625 C 108.589844 85.457031 108.625 85.460938 109.324219 85.238281 C 110.953125 84.726562 111.878906 85.054688 111.878906 86.144531 C 111.878906 86.753906 111.535156 87.085938 110.527344 87.453125 C 108.941406 88.035156 105.449219 89.472656 105.324219 89.59375 C 105.183594 89.734375 106.007812 90.578125 108.671875 93.03125 C 109.785156 94.054688 109.949219 94.261719 109.949219 94.660156 C 109.945312 95.28125 109.425781 95.789062 108.792969 95.789062 C 107.933594 95.789062 106.804688 94.734375 95.675781 83.507812 C 86.378906 74.132812 85.875 73.664062 84.515625 73.214844 C 83.171875 72.765625 81.699219 73.203125 80.691406 74.351562 C 79.988281 75.152344 79.730469 75.851562 79.730469 76.953125 C 79.734375 78.691406 80.320312 79.867188 82.554688 82.597656 C 85.636719 86.367188 89.207031 90.324219 91.496094 92.515625 C 95.242188 96.09375 95.746094 96.957031 96.746094 101.476562 C 97.09375 103.046875 97.574219 104.832031 97.808594 105.445312 C 98.671875 107.6875 100.871094 110.46875 102.785156 111.738281 C 103.304688 112.085938 104.441406 112.703125 105.3125 113.113281 C 106.183594 113.523438 106.960938 113.984375 107.042969 114.132812 C 107.269531 114.554688 107.214844 114.925781 106.871094 115.328125 C 106.460938 115.804688 105.746094 115.808594 104.605469 115.34375 C 101.808594 114.210938 101.246094 114.65625 102.566406 116.949219 C 104.042969 119.503906 105.75 122.15625 105.964844 122.222656 C 106.609375 122.429688 110.46875 121.460938 113.535156 120.328125 C 116.785156 119.125 120.636719 117.105469 121.851562 115.96875 C 122.328125 115.519531 122.324219 115.261719 121.820312 113.613281 C 120.707031 109.964844 120.476562 106.867188 120.304688 93.304688 C 120.203125 85.152344 120.195312 84.933594 119.890625 83.992188 C 118.9375 81.046875 117.402344 79.320312 108.148438 70.761719 C 103.953125 66.875 103.410156 66.25 103.128906 64.945312 C 103.078125 64.714844 103.011719 59.082031 102.976562 52.429688 C 102.910156 39.375 102.910156 39.351562 102.15625 37.429688 C 100.726562 33.78125 98.042969 31.398438 94.007812 30.191406 C 93.042969 29.902344 92.996094 29.902344 66.269531 29.875 C 44.628906 29.855469 39.285156 29.882812 38.390625 30.03125 M 35.285156 48.234375 L 35.285156 59.632812 L 39.839844 59.632812 L 39.839844 52.59375 L 41.347656 52.59375 C 44.265625 52.59375 46.363281 51.890625 47.832031 50.421875 C 50.074219 48.179688 50.65625 44.179688 49.1875 41.089844 C 48.558594 39.765625 47.421875 38.554688 46.226562 37.929688 C 44.511719 37.03125 44.097656 36.96875 39.460938 36.898438 L 35.285156 36.839844 Z M 39.839844 44.9375 L 39.839844 48.730469 L 41.132812 48.730469 C 43.203125 48.730469 44.21875 48.226562 44.882812 46.871094 C 45.710938 45.179688 45.449219 43.421875 44.1875 42.15625 C 43.328125 41.296875 42.859375 41.140625 41.117188 41.140625 L 39.839844 41.140625 Z M 56.746094 42.203125 C 53.980469 42.570312 52.066406 44.25 51.117188 47.144531 C 50.734375 48.320312 50.621094 52.613281 50.9375 54.109375 C 51.542969 56.988281 53.285156 58.945312 55.917969 59.714844 C 57.058594 60.046875 59.613281 60.046875 60.75 59.714844 C 62.644531 59.15625 64.082031 58.011719 64.777344 56.5 C 65.121094 55.753906 65.414062 54.371094 65.253906 54.25 C 65.207031 54.214844 64.1875 54.199219 62.992188 54.222656 C 61.003906 54.261719 60.816406 54.285156 60.816406 54.511719 C 60.816406 54.878906 60.058594 55.863281 59.59375 56.105469 C 57.527344 57.171875 55.433594 55.558594 55.433594 52.898438 L 55.433594 52.320312 L 65.234375 52.320312 L 65.230469 50.144531 C 65.230469 47.746094 65.054688 46.710938 64.445312 45.46875 C 63.984375 44.527344 62.78125 43.3125 61.855469 42.863281 C 60.597656 42.246094 58.480469 41.972656 56.746094 42.203125 M 71.914062 42.3125 C 70.058594 42.714844 68.464844 43.949219 67.648438 45.605469 C 66.875 47.171875 66.71875 48.222656 66.789062 51.351562 C 66.851562 54.253906 66.972656 54.851562 67.78125 56.226562 C 68.277344 57.078125 69.511719 58.203125 70.378906 58.601562 C 72.402344 59.527344 75.140625 59.253906 76.589844 57.984375 L 77.101562 57.535156 L 77.101562 58.371094 C 77.101562 59.632812 76.859375 60.554688 76.378906 61.101562 C 75.808594 61.746094 75.367188 61.953125 74.324219 62.050781 C 73.570312 62.125 73.355469 62.089844 72.832031 61.816406 C 72.207031 61.488281 72.09375 61.363281 71.859375 60.703125 L 71.726562 60.324219 L 69.332031 60.324219 C 68.011719 60.324219 66.902344 60.355469 66.863281 60.394531 C 66.824219 60.4375 66.847656 60.792969 66.921875 61.191406 C 67.199219 62.726562 68.414062 64.316406 69.878906 65.0625 C 71.179688 65.71875 72.0625 65.898438 73.996094 65.890625 C 76.03125 65.882812 77.109375 65.660156 78.382812 64.984375 C 79.402344 64.441406 80.734375 63.023438 81.191406 62 C 81.992188 60.195312 81.992188 60.164062 81.996094 51.007812 L 82 42.589844 L 77.746094 42.589844 L 77.550781 43.171875 L 77.355469 43.757812 L 76.917969 43.339844 C 75.761719 42.230469 73.96875 41.863281 71.914062 42.3125 M 88.855469 42.324219 C 86.53125 42.835938 84.667969 44.6875 84.355469 46.800781 C 84.304688 47.140625 84.230469 47.589844 84.191406 47.800781 L 84.117188 48.179688 L 86.269531 48.179688 C 88.40625 48.179688 88.417969 48.175781 88.421875 47.867188 C 88.425781 47.339844 88.917969 46.441406 89.378906 46.113281 C 89.945312 45.710938 90.941406 45.675781 91.558594 46.042969 C 92.054688 46.335938 92.382812 47.019531 92.421875 47.839844 C 92.46875 48.875 92.53125 48.820312 91.210938 48.921875 C 87.65625 49.1875 85.226562 50.46875 84.226562 52.59375 C 83.847656 53.402344 83.804688 53.628906 83.800781 54.871094 C 83.792969 56.707031 84.074219 57.496094 85.105469 58.542969 C 86.136719 59.585938 87.0625 59.9375 88.777344 59.941406 C 89.855469 59.945312 90.152344 59.894531 90.847656 59.574219 C 91.296875 59.371094 91.890625 58.984375 92.167969 58.710938 L 92.675781 58.214844 L 92.765625 58.753906 C 92.816406 59.046875 92.878906 59.367188 92.910156 59.460938 C 92.949219 59.589844 93.464844 59.632812 94.875 59.632812 L 96.785156 59.632812 L 96.742188 54.835938 C 96.660156 46.039062 96.667969 46.160156 96.222656 45.179688 C 95.792969 44.226562 94.886719 43.28125 93.945312 42.800781 C 92.664062 42.148438 90.566406 41.953125 88.855469 42.324219 M 57.433594 45.816406 C 57.203125 45.875 56.847656 46.03125 56.644531 46.167969 C 56.203125 46.457031 55.632812 47.59375 55.515625 48.421875 L 55.433594 49.007812 L 60.8125 49.007812 L 60.726562 48.351562 C 60.617188 47.492188 60.050781 46.445312 59.515625 46.117188 C 59.019531 45.8125 58.023438 45.667969 57.433594 45.816406 M 72.957031 46.558594 C 72.460938 46.808594 72.261719 47.027344 71.933594 47.679688 C 71.574219 48.398438 71.523438 48.671875 71.46875 50.039062 C 71.375 52.511719 71.804688 53.792969 72.898438 54.3125 C 74.570312 55.105469 76.1875 54.433594 76.769531 52.703125 C 77.066406 51.824219 77.105469 49.398438 76.84375 48.453125 C 76.308594 46.554688 74.609375 45.726562 72.957031 46.558594 M 91.042969 51.933594 C 89.550781 52.164062 88.699219 52.792969 88.40625 53.878906 C 87.855469 55.929688 90.085938 57.171875 91.601562 55.652344 C 92.1875 55.066406 92.421875 54.238281 92.421875 52.742188 C 92.421875 51.675781 92.484375 51.710938 91.042969 51.933594 M 35.480469 65.050781 C 35.660156 65.449219 37.148438 68.5625 38.789062 71.96875 L 41.773438 78.164062 L 41.773438 87.234375 L 46.453125 87.234375 L 46.496094 82.644531 L 46.535156 78.058594 L 49.8125 71.257812 C 51.613281 67.519531 53.089844 64.429688 53.089844 64.390625 C 53.089844 64.351562 51.96875 64.335938 50.597656 64.355469 L 48.105469 64.394531 L 46.1875 68.871094 C 44.523438 72.761719 44.253906 73.304688 44.140625 73.011719 C 44.070312 72.828125 43.253906 70.875 42.324219 68.671875 C 41.398438 66.472656 40.609375 64.59375 40.570312 64.496094 C 40.519531 64.367188 39.835938 64.324219 37.828125 64.324219 L 35.152344 64.324219 Z M 55.546875 70.378906 C 53.082031 71.191406 51.441406 73.25 51.433594 75.539062 L 51.433594 76.054688 L 55.542969 76.054688 L 55.636719 75.539062 C 55.882812 74.222656 56.546875 73.574219 57.644531 73.574219 C 58.863281 73.574219 59.574219 74.375 59.574219 75.746094 L 59.574219 76.410156 L 58.023438 76.59375 C 54.542969 76.996094 52.449219 78.1875 51.449219 80.328125 C 51.152344 80.957031 51.082031 81.335938 51.042969 82.472656 C 50.988281 84.140625 51.269531 85.058594 52.144531 86.054688 C 53.828125 87.964844 57.183594 88.105469 59.132812 86.347656 C 59.742188 85.796875 59.71875 85.785156 59.921875 86.785156 L 60.011719 87.234375 L 64.4375 87.234375 L 64.335938 86.925781 C 64.28125 86.753906 64.191406 83.851562 64.140625 80.472656 C 64.050781 74.515625 64.039062 74.308594 63.734375 73.535156 C 63.203125 72.199219 62.511719 71.464844 61.148438 70.789062 L 59.957031 70.199219 L 58.144531 70.160156 C 56.667969 70.128906 56.1875 70.167969 55.546875 70.378906 M 57.445312 79.710938 C 56.273438 80.128906 55.691406 80.824219 55.601562 81.917969 C 55.550781 82.558594 55.589844 82.761719 55.867188 83.164062 C 56.386719 83.933594 57.304688 84.109375 58.285156 83.636719 C 59.226562 83.179688 59.492188 82.609375 59.554688 80.921875 L 59.605469 79.507812 L 58.796875 79.511719 C 58.351562 79.515625 57.742188 79.605469 57.445312 79.710938 M 68.683594 81.429688 C 67.5 81.789062 66.726562 82.640625 66.472656 83.863281 C 66.246094 84.964844 66.546875 85.90625 67.371094 86.667969 C 68.136719 87.371094 68.484375 87.511719 69.46875 87.511719 C 70.953125 87.511719 72.167969 86.488281 72.394531 85.039062 C 72.597656 83.773438 72.246094 82.746094 71.371094 82.023438 C 70.601562 81.386719 69.566406 81.160156 68.683594 81.429688 M 83.589844 90.148438 C 82.507812 91.152344 80.914062 92.359375 79.285156 93.40625 C 77.914062 94.285156 77.914062 94.285156 78.980469 95.222656 C 80.300781 96.386719 81.179688 96.269531 82.984375 94.691406 C 83.964844 93.835938 85.992188 91.714844 86.265625 91.265625 C 86.382812 91.066406 84.921875 89.300781 84.644531 89.308594 C 84.558594 89.3125 84.082031 89.691406 83.589844 90.148438 M 76.082031 97.050781 C 74.53125 98.863281 75.097656 101.636719 77.210938 102.582031 C 77.882812 102.882812 79.277344 102.9375 79.933594 102.691406 C 81.226562 102.207031 82.070312 101.035156 82.070312 99.722656 C 82.070312 98.710938 81.925781 98.589844 80.621094 98.519531 C 79.324219 98.449219 78.476562 98.078125 77.378906 97.101562 C 76.992188 96.761719 76.65625 96.480469 76.625 96.480469 C 76.597656 96.480469 76.351562 96.738281 76.082031 97.050781 M 84.558594 99.792969 C 84.546875 100.503906 84.210938 101.644531 83.8125 102.332031 C 83.371094 103.082031 82.265625 104.089844 81.445312 104.484375 C 80.753906 104.820312 80.71875 104.925781 81.09375 105.539062 C 81.949219 106.941406 83.960938 107.347656 85.4375 106.414062 C 86.214844 105.917969 86.722656 105.164062 86.921875 104.199219 C 87.191406 102.910156 86.800781 102.023438 85.007812 99.847656 L 84.5625 99.308594 Z M 84.558594 99.792969 " fill-opacity="1" fill-rule="evenodd"/></g></g></svg>