<svg xmlns="http://www.w3.org/2000/svg" xmlns:xlink="http://www.w3.org/1999/xlink" width="227" zoomAndPan="magnify" viewBox="0 0 170.25 170.250002" height="227" preserveAspectRatio="xMidYMid meet" version="1.0"><defs><clipPath id="b095913055"><path d="M 4.226562 2.949219 L 115.136719 2.949219 L 115.136719 100.859375 L 4.226562 100.859375 Z M 4.226562 2.949219 " clip-rule="nonzero"/></clipPath><clipPath id="920c24b14b"><path d="M 21.417969 2.949219 L 97.902344 2.949219 C 107.394531 2.949219 115.09375 10.648438 115.09375 20.140625 L 115.09375 83.667969 C 115.09375 93.160156 107.394531 100.859375 97.902344 100.859375 L 21.417969 100.859375 C 11.921875 100.859375 4.226562 93.160156 4.226562 83.667969 L 4.226562 20.140625 C 4.226562 10.648438 11.921875 2.949219 21.417969 2.949219 Z M 21.417969 2.949219 " clip-rule="nonzero"/></clipPath><clipPath id="35c211ec05"><path d="M 0.226562 0.949219 L 111.136719 0.949219 L 111.136719 98.859375 L 0.226562 98.859375 Z M 0.226562 0.949219 " clip-rule="nonzero"/></clipPath><clipPath id="5f96906b5b"><path d="M 17.417969 0.949219 L 93.902344 0.949219 C 103.394531 0.949219 111.09375 8.648438 111.09375 18.140625 L 111.09375 81.667969 C 111.09375 91.160156 103.394531 98.859375 93.902344 98.859375 L 17.417969 98.859375 C 7.921875 98.859375 0.226562 91.160156 0.226562 81.667969 L 0.226562 18.140625 C 0.226562 8.648438 7.921875 0.949219 17.417969 0.949219 Z M 17.417969 0.949219 " clip-rule="nonzero"/></clipPath><clipPath id="9e7a85bd66"><rect x="0" width="112" y="0" height="99"/></clipPath><clipPath id="2b9bdb9cd1"><path d="M 81.832031 55.179688 L 132.683594 55.179688 L 132.683594 106.03125 L 81.832031 106.03125 Z M 81.832031 55.179688 " clip-rule="nonzero"/></clipPath><clipPath id="efded9f272"><path d="M 107.257812 55.179688 C 93.214844 55.179688 81.832031 66.5625 81.832031 80.605469 C 81.832031 94.648438 93.214844 106.03125 107.257812 106.03125 C 121.300781 106.03125 132.683594 94.648438 132.683594 80.605469 C 132.683594 66.5625 121.300781 55.179688 107.257812 55.179688 Z M 107.257812 55.179688 " clip-rule="nonzero"/></clipPath><clipPath id="7015c8abba"><path d="M 0.832031 0.179688 L 51.683594 0.179688 L 51.683594 51.03125 L 0.832031 51.03125 Z M 0.832031 0.179688 " clip-rule="nonzero"/></clipPath><clipPath id="c28777eca6"><path d="M 26.257812 0.179688 C 12.214844 0.179688 0.832031 11.5625 0.832031 25.605469 C 0.832031 39.648438 12.214844 51.03125 26.257812 51.03125 C 40.300781 51.03125 51.683594 39.648438 51.683594 25.605469 C 51.683594 11.5625 40.300781 0.179688 26.257812 0.179688 Z M 26.257812 0.179688 " clip-rule="nonzero"/></clipPath><clipPath id="53043332d0"><rect x="0" width="52" y="0" height="52"/></clipPath><clipPath id="a1a79e4735"><path d="M 71.617188 91.445312 L 95.304688 91.445312 L 95.304688 113.257812 L 71.617188 113.257812 Z M 71.617188 91.445312 " clip-rule="nonzero"/></clipPath><clipPath id="81371b89d3"><path d="M 83.449219 91.445312 C 76.914062 91.445312 71.617188 96.328125 71.617188 102.351562 C 71.617188 108.375 76.914062 113.257812 83.449219 113.257812 C 89.984375 113.257812 95.28125 108.375 95.28125 102.351562 C 95.28125 96.328125 89.984375 91.445312 83.449219 91.445312 Z M 83.449219 91.445312 " clip-rule="nonzero"/></clipPath><clipPath id="24818c9ac6"><path d="M 0.617188 0.445312 L 24.304688 0.445312 L 24.304688 22.257812 L 0.617188 22.257812 Z M 0.617188 0.445312 " clip-rule="nonzero"/></clipPath><clipPath id="0b9e9f44fa"><path d="M 12.449219 0.445312 C 5.914062 0.445312 0.617188 5.328125 0.617188 11.351562 C 0.617188 17.375 5.914062 22.257812 12.449219 22.257812 C 18.984375 22.257812 24.28125 17.375 24.28125 11.351562 C 24.28125 5.328125 18.984375 0.445312 12.449219 0.445312 Z M 12.449219 0.445312 " clip-rule="nonzero"/></clipPath><clipPath id="9c0f2e70b4"><rect x="0" width="25" y="0" height="23"/></clipPath><clipPath id="604a0b60c8"><path d="M 80.023438 108.332031 L 90.722656 108.332031 L 90.722656 118.1875 L 80.023438 118.1875 Z M 80.023438 108.332031 " clip-rule="nonzero"/></clipPath><clipPath id="20edc7b0d8"><path d="M 85.367188 108.332031 C 82.414062 108.332031 80.023438 110.539062 80.023438 113.257812 C 80.023438 115.980469 82.414062 118.1875 85.367188 118.1875 C 88.316406 118.1875 90.710938 115.980469 90.710938 113.257812 C 90.710938 110.539062 88.316406 108.332031 85.367188 108.332031 Z M 85.367188 108.332031 " clip-rule="nonzero"/></clipPath><clipPath id="0c4122d1cd"><path d="M 0.0234375 0.332031 L 10.722656 0.332031 L 10.722656 10.1875 L 0.0234375 10.1875 Z M 0.0234375 0.332031 " clip-rule="nonzero"/></clipPath><clipPath id="8c15296c60"><path d="M 5.367188 0.332031 C 2.414062 0.332031 0.0234375 2.539062 0.0234375 5.257812 C 0.0234375 7.980469 2.414062 10.1875 5.367188 10.1875 C 8.316406 10.1875 10.710938 7.980469 10.710938 5.257812 C 10.710938 2.539062 8.316406 0.332031 5.367188 0.332031 Z M 5.367188 0.332031 " clip-rule="nonzero"/></clipPath><clipPath id="93de286b67"><rect x="0" width="11" y="0" height="11"/></clipPath><clipPath id="ce1e4bd5dc"><path d="M 88 77 L 143 77 L 143 142 L 88 142 Z M 88 77 " clip-rule="nonzero"/></clipPath><clipPath id="a0b272706f"><path d="M 85.367188 92.175781 L 114.222656 74.726562 L 145.914062 127.136719 L 117.0625 144.585938 Z M 85.367188 92.175781 " clip-rule="nonzero"/></clipPath><clipPath id="bb0a9dfb13"><path d="M 92.402344 87.921875 L 107.183594 78.984375 C 111.070312 76.632812 116.125 77.878906 118.476562 81.761719 L 141.625 120.042969 C 143.972656 123.925781 142.730469 128.980469 138.84375 131.332031 L 124.0625 140.273438 C 120.175781 142.621094 115.121094 141.375 112.769531 137.492188 L 89.621094 99.210938 C 87.273438 95.328125 88.515625 90.273438 92.402344 87.921875 Z M 92.402344 87.921875 " clip-rule="nonzero"/></clipPath><clipPath id="09210aaf59"><path d="M 0 0 L 55 0 L 55 65 L 0 65 Z M 0 0 " clip-rule="nonzero"/></clipPath><clipPath id="60d9093a3a"><path d="M -2.632812 15.175781 L 26.222656 -2.273438 L 57.914062 50.136719 L 29.0625 67.585938 Z M -2.632812 15.175781 " clip-rule="nonzero"/></clipPath><clipPath id="a0129fbcae"><path d="M 4.402344 10.921875 L 19.183594 1.984375 C 23.070312 -0.367188 28.125 0.878906 30.476562 4.761719 L 53.625 43.042969 C 55.972656 46.925781 54.730469 51.980469 50.84375 54.332031 L 36.0625 63.273438 C 32.175781 65.621094 27.121094 64.375 24.769531 60.492188 L 1.621094 22.210938 C -0.726562 18.328125 0.515625 13.273438 4.402344 10.921875 Z M 4.402344 10.921875 " clip-rule="nonzero"/></clipPath><clipPath id="ea4ec321d6"><rect x="0" width="55" y="0" height="65"/></clipPath><clipPath id="cb5742c38b"><path d="M 95 76 L 142 76 L 142 121 L 95 121 Z M 95 76 " clip-rule="nonzero"/></clipPath><clipPath id="7414d11662"><path d="M 110.707031 65.695312 L 156.988281 87.03125 L 141.5625 120.5 L 95.277344 99.167969 Z M 110.707031 65.695312 " clip-rule="nonzero"/></clipPath><clipPath id="a9c77ec9dc"><path d="M 133.796875 76.339844 L 141.460938 120.453125 L 95.277344 99.167969 Z M 133.796875 76.339844 " clip-rule="nonzero"/></clipPath><clipPath id="50671e110c"><path d="M 0.09375 0.320312 L 46.6875 0.320312 L 46.6875 44.527344 L 0.09375 44.527344 Z M 0.09375 0.320312 " clip-rule="nonzero"/></clipPath><clipPath id="f59d8f4a45"><path d="M 15.707031 -10.304688 L 61.988281 11.03125 L 46.5625 44.5 L 0.277344 23.167969 Z M 15.707031 -10.304688 " clip-rule="nonzero"/></clipPath><clipPath id="b93f485091"><path d="M 38.796875 0.339844 L 46.460938 44.453125 L 0.277344 23.167969 Z M 38.796875 0.339844 " clip-rule="nonzero"/></clipPath><clipPath id="8b1ecc40cf"><rect x="0" width="47" y="0" height="45"/></clipPath><clipPath id="a113755408"><path d="M 90.710938 67.335938 L 141.5625 67.335938 L 141.5625 118.1875 L 90.710938 118.1875 Z M 90.710938 67.335938 " clip-rule="nonzero"/></clipPath><clipPath id="025a278a40"><path d="M 116.136719 67.335938 C 102.09375 67.335938 90.710938 78.71875 90.710938 92.761719 C 90.710938 106.800781 102.09375 118.1875 116.136719 118.1875 C 130.179688 118.1875 141.5625 106.800781 141.5625 92.761719 C 141.5625 78.71875 130.179688 67.335938 116.136719 67.335938 Z M 116.136719 67.335938 " clip-rule="nonzero"/></clipPath><clipPath id="fab2e4817b"><path d="M 0.710938 0.335938 L 51.5625 0.335938 L 51.5625 51.1875 L 0.710938 51.1875 Z M 0.710938 0.335938 " clip-rule="nonzero"/></clipPath><clipPath id="c5d52fb1a2"><path d="M 26.136719 0.335938 C 12.09375 0.335938 0.710938 11.71875 0.710938 25.761719 C 0.710938 39.800781 12.09375 51.1875 26.136719 51.1875 C 40.179688 51.1875 51.5625 39.800781 51.5625 25.761719 C 51.5625 11.71875 40.179688 0.335938 26.136719 0.335938 Z M 26.136719 0.335938 " clip-rule="nonzero"/></clipPath><clipPath id="17e1a3c05b"><rect x="0" width="52" y="0" height="52"/></clipPath><clipPath id="a716260ddc"><path d="M 1 0.0976562 L 146 0.0976562 L 146 143 L 1 143 Z M 1 0.0976562 " clip-rule="nonzero"/></clipPath><clipPath id="4865b43bc9"><rect x="0" width="158" y="0" height="145"/></clipPath></defs><g transform="matrix(1, 0, 0, 1, 11, 14)"><g clip-path="url(#4865b43bc9)"><g clip-path="url(#b095913055)"><g clip-path="url(#920c24b14b)"><g transform="matrix(1, 0, 0, 1, 4, 2)"><g clip-path="url(#9e7a85bd66)"><g clip-path="url(#35c211ec05)"><g clip-path="url(#5f96906b5b)"><path fill="#126298" d="M 0.226562 0.949219 L 111.136719 0.949219 L 111.136719 98.859375 L 0.226562 98.859375 Z M 0.226562 0.949219 " fill-opacity="1" fill-rule="nonzero"/></g></g></g></g></g></g><g clip-path="url(#2b9bdb9cd1)"><g clip-path="url(#efded9f272)"><g transform="matrix(1, 0, 0, 1, 81, 55)"><g clip-path="url(#53043332d0)"><g clip-path="url(#7015c8abba)"><g clip-path="url(#c28777eca6)"><path fill="#126298" d="M 0.832031 0.179688 L 51.683594 0.179688 L 51.683594 51.03125 L 0.832031 51.03125 Z M 0.832031 0.179688 " fill-opacity="1" fill-rule="nonzero"/></g></g></g></g></g></g><g clip-path="url(#a1a79e4735)"><g clip-path="url(#81371b89d3)"><g transform="matrix(1, 0, 0, 1, 71, 91)"><g clip-path="url(#9c0f2e70b4)"><g clip-path="url(#24818c9ac6)"><g clip-path="url(#0b9e9f44fa)"><path fill="#126298" d="M 0.617188 0.445312 L 24.304688 0.445312 L 24.304688 22.257812 L 0.617188 22.257812 Z M 0.617188 0.445312 " fill-opacity="1" fill-rule="nonzero"/></g></g></g></g></g></g><g clip-path="url(#604a0b60c8)"><g clip-path="url(#20edc7b0d8)"><g transform="matrix(1, 0, 0, 1, 80, 108)"><g clip-path="url(#93de286b67)"><g clip-path="url(#0c4122d1cd)"><g clip-path="url(#8c15296c60)"><path fill="#126298" d="M 0.0234375 0.332031 L 10.722656 0.332031 L 10.722656 10.1875 L 0.0234375 10.1875 Z M 0.0234375 0.332031 " fill-opacity="1" fill-rule="nonzero"/></g></g></g></g></g></g><g clip-path="url(#ce1e4bd5dc)"><g clip-path="url(#a0b272706f)"><g clip-path="url(#bb0a9dfb13)"><g transform="matrix(1, 0, 0, 1, 88, 77)"><g clip-path="url(#ea4ec321d6)"><g clip-path="url(#09210aaf59)"><g clip-path="url(#60d9093a3a)"><g clip-path="url(#a0129fbcae)"><path fill="#126298" d="M -2.632812 15.175781 L 26.222656 -2.273438 L 57.847656 50.027344 L 28.992188 67.476562 Z M -2.632812 15.175781 " fill-opacity="1" fill-rule="nonzero"/></g></g></g></g></g></g></g></g><g clip-path="url(#cb5742c38b)"><g clip-path="url(#7414d11662)"><g clip-path="url(#a9c77ec9dc)"><g transform="matrix(1, 0, 0, 1, 95, 76)"><g clip-path="url(#8b1ecc40cf)"><g clip-path="url(#50671e110c)"><g clip-path="url(#f59d8f4a45)"><g clip-path="url(#b93f485091)"><path fill="#126298" d="M 15.707031 -10.304688 L 61.859375 10.96875 L 46.429688 44.4375 L 0.277344 23.167969 Z M 15.707031 -10.304688 " fill-opacity="1" fill-rule="nonzero"/></g></g></g></g></g></g></g></g><g clip-path="url(#a113755408)"><g clip-path="url(#025a278a40)"><g transform="matrix(1, 0, 0, 1, 90, 67)"><g clip-path="url(#17e1a3c05b)"><g clip-path="url(#fab2e4817b)"><g clip-path="url(#c5d52fb1a2)"><path fill="#126298" d="M 0.710938 0.335938 L 51.5625 0.335938 L 51.5625 51.1875 L 0.710938 51.1875 Z M 0.710938 0.335938 " fill-opacity="1" fill-rule="nonzero"/></g></g></g></g></g></g><g clip-path="url(#a716260ddc)"><path fill="#ffde59" d="M 17.75 0.570312 C 15.570312 0.96875 14.117188 1.441406 12.355469 2.328125 C 7.160156 4.941406 3.371094 9.613281 1.644531 15.546875 L 1.089844 17.457031 L 1.027344 51.8125 C 0.988281 73.824219 1.039062 86.714844 1.167969 87.691406 C 2.078125 94.617188 7.578125 100.871094 14.652344 103.023438 C 15.589844 103.308594 16.988281 103.632812 17.761719 103.742188 C 19.710938 104.023438 57.335938 104.019531 60.082031 103.738281 C 62.839844 103.457031 65.480469 102.878906 68.25 101.945312 C 69.5 101.523438 70.488281 101.238281 70.449219 101.308594 C 69.421875 103.207031 69.195312 105.894531 69.890625 107.953125 C 70.910156 110.96875 73.464844 113.191406 76.292969 113.527344 C 76.839844 113.59375 77.371094 113.703125 77.472656 113.773438 C 77.574219 113.839844 77.824219 114.347656 78.03125 114.902344 C 78.511719 116.1875 80.277344 118.054688 81.644531 118.722656 C 84.835938 120.285156 88.917969 119.515625 91.40625 116.882812 C 92.90625 115.296875 93.46875 113.925781 93.574219 111.597656 C 93.648438 109.886719 93.6875 109.742188 93.949219 110.09375 C 94.625 110.988281 95.492188 112.996094 96.53125 116.0625 C 98.472656 121.773438 99.710938 123.71875 103.324219 126.730469 C 105.808594 128.804688 106.421875 129.4375 108.191406 131.777344 C 109.46875 133.46875 110.789062 135.609375 112.398438 138.589844 C 114.128906 141.796875 115.101562 142.519531 117.71875 142.519531 C 121.425781 142.523438 129.742188 139.96875 136.34375 136.800781 C 140.042969 135.023438 142.539062 133.429688 144.070312 131.859375 C 145.871094 130.023438 146.027344 128.910156 144.957031 125.640625 C 144.578125 124.484375 144.089844 122.816406 143.867188 121.933594 C 142.800781 117.703125 142.390625 109.738281 142.449219 94.609375 C 142.484375 85.75 142.445312 83.929688 142.175781 82.632812 C 141.464844 79.21875 139.90625 76.378906 136.863281 72.960938 C 135.3125 71.222656 134.089844 70.039062 124.109375 60.605469 C 118.425781 55.238281 117.558594 54.292969 117.300781 53.175781 C 117.203125 52.757812 117.121094 44.777344 117.117188 35.4375 C 117.117188 24.71875 117.039062 17.980469 116.90625 17.15625 C 116.480469 14.488281 115.507812 12.09375 113.792969 9.507812 C 110.917969 5.164062 106.78125 2.230469 101.542969 0.820312 L 99.9375 0.386719 L 59.550781 0.347656 C 27.304688 0.316406 18.882812 0.363281 17.75 0.570312 M 19.367188 4.195312 C 16.3125 4.699219 13.992188 5.671875 11.679688 7.410156 C 9.398438 9.125 7.191406 12.132812 6.113281 15.003906 C 4.957031 18.089844 4.988281 16.859375 5.050781 53.632812 L 5.105469 87.375 L 5.570312 88.878906 C 6.40625 91.582031 7.503906 93.410156 9.515625 95.429688 C 11.089844 97.011719 11.613281 97.394531 13.441406 98.300781 C 14.972656 99.058594 16.09375 99.457031 17.523438 99.746094 C 19.433594 100.136719 20.179688 100.148438 39.828125 100.089844 L 60.15625 100.027344 L 62.351562 99.5625 C 67.339844 98.511719 72.457031 96.257812 77.5 92.890625 C 80.136719 91.132812 84.15625 87.933594 84.332031 87.457031 C 84.367188 87.355469 84.007812 86.835938 83.527344 86.304688 C 81.769531 84.347656 79.214844 81 78.179688 79.296875 C 75.878906 75.507812 75.476562 71.8125 77.019531 68.679688 C 77.914062 66.863281 79.625 65.195312 81.496094 64.320312 C 82.660156 63.773438 83.136719 63.667969 84.765625 63.605469 C 89.042969 63.429688 91.390625 65.003906 99.949219 73.785156 L 102.820312 76.726562 L 103.375 76.425781 C 103.683594 76.257812 104.320312 75.625 104.796875 75.019531 C 106.617188 72.691406 106.941406 72.40625 107.777344 72.40625 C 108.640625 72.40625 107.992188 71.804688 115.8125 79.863281 C 118.394531 82.523438 120.144531 84.164062 120.710938 84.453125 C 121.566406 84.890625 121.621094 84.890625 122.636719 84.570312 C 125.007812 83.828125 126.355469 84.304688 126.355469 85.890625 C 126.355469 86.773438 125.855469 87.257812 124.386719 87.796875 C 122.078125 88.640625 116.996094 90.734375 116.8125 90.914062 C 116.609375 91.117188 117.808594 92.347656 121.6875 95.914062 C 123.308594 97.40625 123.542969 97.707031 123.542969 98.285156 C 123.542969 99.191406 122.785156 99.933594 121.863281 99.933594 C 120.613281 99.933594 118.96875 98.394531 102.769531 82.054688 C 89.230469 68.398438 88.496094 67.722656 86.519531 67.066406 C 84.558594 66.414062 82.414062 67.050781 80.949219 68.71875 C 79.925781 69.886719 79.550781 70.90625 79.554688 72.507812 C 79.558594 75.042969 80.414062 76.753906 83.660156 80.722656 C 88.152344 86.214844 93.347656 91.976562 96.683594 95.164062 C 102.132812 100.375 102.867188 101.628906 104.328125 108.210938 C 104.832031 110.5 105.527344 113.097656 105.871094 113.988281 C 107.128906 117.25 110.332031 121.300781 113.117188 123.152344 C 113.871094 123.652344 115.527344 124.554688 116.792969 125.152344 C 118.0625 125.75 119.199219 126.417969 119.3125 126.636719 C 119.644531 127.25 119.566406 127.792969 119.0625 128.375 C 118.464844 129.070312 117.429688 129.078125 115.765625 128.402344 C 111.695312 126.75 110.875 127.398438 112.800781 130.738281 C 114.945312 134.457031 117.429688 138.316406 117.746094 138.417969 C 118.683594 138.714844 124.304688 137.308594 128.765625 135.65625 C 133.5 133.902344 139.105469 130.964844 140.871094 129.308594 C 141.570312 128.65625 141.566406 128.277344 140.832031 125.882812 C 139.207031 120.570312 138.871094 116.058594 138.625 96.316406 C 138.476562 84.445312 138.460938 84.128906 138.015625 82.753906 C 136.628906 78.46875 134.398438 75.953125 120.929688 63.492188 C 114.816406 57.839844 114.027344 56.925781 113.617188 55.023438 C 113.546875 54.691406 113.445312 46.492188 113.394531 36.804688 C 113.300781 17.800781 113.296875 17.769531 112.199219 14.96875 C 110.117188 9.65625 106.210938 6.183594 100.335938 4.429688 C 98.933594 4.007812 98.867188 4.007812 59.953125 3.96875 C 28.453125 3.9375 20.667969 3.980469 19.367188 4.195312 M 14.847656 30.699219 L 14.847656 47.292969 L 21.476562 47.292969 L 21.476562 37.046875 L 23.671875 37.046875 C 27.917969 37.046875 30.972656 36.023438 33.113281 33.878906 C 36.378906 30.617188 37.222656 24.796875 35.082031 20.296875 C 34.171875 18.371094 32.519531 16.605469 30.773438 15.691406 C 28.28125 14.386719 27.675781 14.292969 20.925781 14.195312 L 14.847656 14.105469 Z M 21.476562 25.894531 L 21.476562 31.421875 L 23.359375 31.421875 C 26.371094 31.421875 27.851562 30.6875 28.820312 28.710938 C 30.023438 26.25 29.644531 23.691406 27.808594 21.851562 C 26.554688 20.601562 25.871094 20.371094 23.335938 20.371094 L 21.476562 20.371094 Z M 46.089844 21.917969 C 42.066406 22.449219 39.277344 24.898438 37.898438 29.109375 C 37.335938 30.820312 37.171875 37.070312 37.632812 39.25 C 38.515625 43.441406 41.050781 46.292969 44.882812 47.414062 C 46.542969 47.898438 50.261719 47.898438 51.917969 47.410156 C 54.679688 46.597656 56.769531 44.929688 57.785156 42.730469 C 58.285156 41.648438 58.710938 39.632812 58.480469 39.457031 C 58.40625 39.402344 56.921875 39.382812 55.183594 39.417969 C 52.289062 39.472656 52.015625 39.507812 52.015625 39.839844 C 52.015625 40.367188 50.910156 41.804688 50.234375 42.15625 C 47.230469 43.710938 44.179688 41.359375 44.179688 37.484375 L 44.179688 36.644531 L 58.445312 36.644531 L 58.445312 33.480469 C 58.441406 29.988281 58.1875 28.480469 57.300781 26.671875 C 56.628906 25.300781 54.875 23.535156 53.53125 22.875 C 51.695312 21.976562 48.617188 21.582031 46.089844 21.917969 M 68.171875 22.074219 C 65.472656 22.660156 63.148438 24.457031 61.960938 26.867188 C 60.835938 29.152344 60.609375 30.679688 60.710938 35.238281 C 60.800781 39.460938 60.980469 40.332031 62.152344 42.335938 C 62.878906 43.574219 64.671875 45.214844 65.9375 45.792969 C 68.882812 47.140625 72.871094 46.742188 74.980469 44.890625 L 75.726562 44.238281 L 75.726562 45.453125 C 75.726562 47.292969 75.371094 48.632812 74.671875 49.429688 C 73.84375 50.371094 73.199219 50.667969 71.683594 50.816406 C 70.585938 50.921875 70.273438 50.871094 69.507812 50.472656 C 68.597656 49.992188 68.433594 49.808594 68.09375 48.851562 L 67.898438 48.296875 L 64.410156 48.296875 C 62.492188 48.296875 60.878906 48.34375 60.820312 48.402344 C 60.761719 48.460938 60.796875 48.980469 60.902344 49.558594 C 61.308594 51.796875 63.078125 54.113281 65.210938 55.195312 C 67.101562 56.152344 68.386719 56.414062 71.203125 56.402344 C 74.164062 56.390625 75.734375 56.066406 77.589844 55.082031 C 79.074219 54.292969 81.015625 52.230469 81.675781 50.738281 C 82.84375 48.109375 82.847656 48.066406 82.851562 34.734375 L 82.859375 22.480469 L 76.664062 22.480469 L 76.378906 23.328125 L 76.097656 24.179688 L 75.460938 23.570312 C 73.773438 21.957031 71.167969 21.421875 68.171875 22.074219 M 92.835938 22.09375 C 89.457031 22.835938 86.738281 25.535156 86.285156 28.609375 C 86.210938 29.105469 86.105469 29.761719 86.046875 30.0625 L 85.941406 30.617188 L 89.070312 30.617188 C 92.179688 30.617188 92.199219 30.613281 92.207031 30.164062 C 92.210938 29.398438 92.925781 28.089844 93.597656 27.609375 C 94.421875 27.023438 95.875 26.976562 96.769531 27.503906 C 97.492188 27.929688 97.972656 28.925781 98.027344 30.121094 C 98.101562 31.628906 98.1875 31.550781 96.265625 31.695312 C 91.09375 32.085938 87.554688 33.949219 86.101562 37.046875 C 85.546875 38.222656 85.484375 38.550781 85.480469 40.359375 C 85.46875 43.03125 85.875 44.179688 87.378906 45.703125 C 88.878906 47.222656 90.226562 47.738281 92.726562 47.746094 C 94.292969 47.75 94.726562 47.671875 95.738281 47.210938 C 96.390625 46.914062 97.253906 46.34375 97.660156 45.949219 L 98.402344 45.230469 L 98.53125 46.011719 C 98.601562 46.4375 98.695312 46.902344 98.738281 47.042969 C 98.796875 47.226562 99.550781 47.292969 101.597656 47.292969 L 104.378906 47.292969 L 104.316406 40.3125 C 104.199219 27.5 104.210938 27.679688 103.5625 26.25 C 102.9375 24.859375 101.621094 23.484375 100.246094 22.785156 C 98.382812 21.835938 95.328125 21.550781 92.835938 22.09375 M 47.089844 27.179688 C 46.757812 27.265625 46.238281 27.492188 45.941406 27.6875 C 45.296875 28.109375 44.46875 29.765625 44.296875 30.96875 L 44.175781 31.824219 L 52.007812 31.824219 L 51.886719 30.867188 C 51.726562 29.617188 50.898438 28.089844 50.125 27.617188 C 49.398438 27.171875 47.949219 26.960938 47.089844 27.179688 M 69.691406 28.257812 C 68.96875 28.621094 68.679688 28.9375 68.203125 29.890625 C 67.679688 30.9375 67.601562 31.332031 67.527344 33.324219 C 67.386719 36.921875 68.011719 38.792969 69.609375 39.550781 C 72.039062 40.703125 74.394531 39.722656 75.242188 37.203125 C 75.675781 35.921875 75.734375 32.394531 75.347656 31.019531 C 74.570312 28.253906 72.09375 27.042969 69.691406 28.257812 M 96.019531 36.082031 C 93.851562 36.417969 92.609375 37.332031 92.183594 38.914062 C 91.378906 41.902344 94.628906 43.710938 96.835938 41.5 C 97.6875 40.648438 98.027344 39.441406 98.027344 37.261719 C 98.027344 35.703125 98.121094 35.757812 96.019531 36.082031 M 15.128906 55.179688 C 15.390625 55.757812 17.558594 60.292969 19.949219 65.253906 L 24.289062 74.273438 L 24.289062 87.476562 L 31.105469 87.476562 L 31.222656 74.117188 L 35.992188 64.21875 C 38.617188 58.777344 40.765625 54.277344 40.765625 54.21875 C 40.765625 54.160156 39.132812 54.140625 37.140625 54.167969 L 33.511719 54.222656 L 30.71875 60.742188 C 28.292969 66.402344 27.902344 67.195312 27.738281 66.769531 C 27.632812 66.5 26.445312 63.65625 25.09375 60.453125 C 23.746094 57.25 22.597656 54.511719 22.539062 54.375 C 22.464844 54.1875 21.472656 54.125 18.546875 54.125 L 14.652344 54.125 Z M 44.34375 62.9375 C 40.757812 64.121094 38.367188 67.117188 38.355469 70.449219 L 38.355469 71.203125 L 44.335938 71.203125 L 44.476562 70.449219 C 44.832031 68.535156 45.796875 67.585938 47.394531 67.585938 C 49.171875 67.585938 50.210938 68.753906 50.210938 70.75 L 50.210938 71.71875 L 47.949219 71.984375 C 42.886719 72.574219 39.835938 74.304688 38.375 77.421875 C 37.945312 78.339844 37.839844 78.890625 37.785156 80.542969 C 37.707031 82.972656 38.117188 84.308594 39.390625 85.757812 C 41.84375 88.542969 46.726562 88.746094 49.5625 86.183594 C 50.449219 85.382812 50.417969 85.367188 50.710938 86.824219 L 50.84375 87.476562 L 57.289062 87.476562 L 57.140625 87.023438 C 57.058594 86.777344 56.929688 82.550781 56.855469 77.632812 C 56.726562 68.960938 56.707031 68.65625 56.261719 67.535156 C 55.492188 65.589844 54.484375 64.519531 52.5 63.535156 L 50.761719 62.671875 L 48.125 62.617188 C 45.976562 62.570312 45.273438 62.632812 44.34375 62.9375 M 47.105469 76.523438 C 45.398438 77.132812 44.558594 78.140625 44.425781 79.734375 C 44.347656 80.667969 44.410156 80.960938 44.808594 81.550781 C 45.566406 82.667969 46.902344 82.929688 48.328125 82.238281 C 49.699219 81.574219 50.085938 80.746094 50.179688 78.285156 L 50.253906 76.226562 L 49.078125 76.234375 C 48.429688 76.238281 47.542969 76.371094 47.105469 76.523438 M 63.46875 79.023438 C 61.746094 79.550781 60.621094 80.785156 60.25 82.570312 C 59.917969 84.171875 60.359375 85.542969 61.558594 86.648438 C 62.671875 87.675781 63.175781 87.878906 64.609375 87.878906 C 66.773438 87.878906 68.539062 86.386719 68.875 84.28125 C 69.164062 82.4375 68.65625 80.941406 67.378906 79.886719 C 66.261719 78.964844 64.757812 78.632812 63.46875 79.023438 M 85.167969 91.71875 C 83.597656 93.179688 81.277344 94.9375 78.902344 96.464844 C 76.910156 97.746094 76.910156 97.742188 78.460938 99.109375 C 80.382812 100.800781 81.664062 100.628906 84.289062 98.335938 C 85.714844 97.089844 88.671875 94 89.066406 93.34375 C 89.238281 93.054688 87.109375 90.484375 86.707031 90.5 C 86.578125 90.503906 85.886719 91.050781 85.167969 91.71875 M 74.242188 101.769531 C 71.984375 104.40625 72.808594 108.445312 75.882812 109.820312 C 76.859375 110.257812 78.894531 110.339844 79.847656 109.980469 C 81.730469 109.273438 82.957031 107.566406 82.957031 105.660156 C 82.957031 104.183594 82.746094 104.007812 80.847656 103.90625 C 78.960938 103.800781 77.726562 103.261719 76.128906 101.84375 C 75.566406 101.34375 75.074219 100.9375 75.03125 100.9375 C 74.988281 100.9375 74.632812 101.3125 74.242188 101.769531 M 86.578125 105.761719 C 86.566406 106.796875 86.078125 108.457031 85.492188 109.457031 C 84.851562 110.546875 83.242188 112.015625 82.050781 112.59375 C 81.039062 113.082031 80.992188 113.230469 81.535156 114.125 C 82.78125 116.167969 85.710938 116.757812 87.859375 115.398438 C 88.992188 114.675781 89.730469 113.582031 90.023438 112.175781 C 90.414062 110.296875 89.847656 109.007812 87.234375 105.839844 L 86.589844 105.054688 Z M 86.578125 105.761719 " fill-opacity="1" fill-rule="evenodd"/></g></g></g></svg>