<svg xmlns="http://www.w3.org/2000/svg" width="227" height="227" version="1.2" viewBox="0 0 170.25 170.25"><defs><clipPath id="a"><path d="M15.227 16.95h110.91v97.91H15.227Zm0 0"/></clipPath><clipPath id="b"><path d="M32.418 16.95h76.484c9.493 0 17.192 7.698 17.192 17.19v63.528c0 9.492-7.7 17.191-17.192 17.191H32.418c-9.496 0-17.191-7.699-17.191-17.191V34.141c0-9.493 7.695-17.192 17.191-17.192m0 0"/></clipPath><clipPath id="c"><path d="M92.832 69.18h50.852v50.851H92.832Zm0 0"/></clipPath><clipPath id="d"><path d="M118.258 69.18c-14.043 0-25.426 11.382-25.426 25.425s11.383 25.426 25.426 25.426 25.426-11.383 25.426-25.426S132.3 69.18 118.258 69.18m0 0"/></clipPath><clipPath id="e"><path d="M82.617 105.445h23.688v21.813H82.617Zm0 0"/></clipPath><clipPath id="f"><path d="M94.45 105.445c-6.536 0-11.833 4.883-11.833 10.907 0 6.023 5.297 10.906 11.832 10.906s11.832-4.883 11.832-10.906-5.297-10.907-11.832-10.907m0 0"/></clipPath><clipPath id="g"><path d="M91.023 122.332h10.7v9.856h-10.7Zm0 0"/></clipPath><clipPath id="h"><path d="M96.367 122.332c-2.953 0-5.344 2.207-5.344 4.926 0 2.722 2.391 4.93 5.344 4.93 2.95 0 5.344-2.208 5.344-4.93 0-2.719-2.395-4.926-5.344-4.926m0 0"/></clipPath><clipPath id="i"><path d="M99 91h55v65H99Zm0 0"/></clipPath><clipPath id="j"><path d="m96.367 106.176 28.856-17.45 31.691 52.41-28.851 17.45Zm0 0"/></clipPath><clipPath id="k"><path d="m103.402 101.922 14.782-8.938a8.225 8.225 0 0 1 11.293 2.778l23.148 38.281a8.223 8.223 0 0 1-2.781 11.289l-14.781 8.941a8.23 8.23 0 0 1-11.293-2.78L100.62 113.21a8.223 8.223 0 0 1 2.781-11.29m0 0"/></clipPath><clipPath id="l"><path d="M106 90h47v45h-47Zm0 0"/></clipPath><clipPath id="m"><path d="m121.707 79.695 46.281 21.336-15.425 33.469-46.286-21.332Zm0 0"/></clipPath><clipPath id="n"><path d="m144.797 90.34 7.664 44.113-46.184-21.285Zm0 0"/></clipPath><clipPath id="o"><path d="M101.71 81.336h50.853v50.852H101.71Zm0 0"/></clipPath><clipPath id="p"><path d="M127.137 81.336c-14.043 0-25.426 11.383-25.426 25.426 0 14.039 11.383 25.426 25.426 25.426s25.426-11.387 25.426-25.426c0-14.043-11.383-25.426-25.426-25.426m0 0"/></clipPath></defs><g clip-path="url(#a)"><g clip-path="url(#b)"><path d="M15.227 16.95h110.91v97.91H15.227Zm0 0" style="stroke:none;fill-rule:nonzero;fill:#126298;fill-opacity:1"/></g></g><g clip-path="url(#c)"><g clip-path="url(#d)"><path d="M92.832 69.18h50.852v50.851H92.832Zm0 0" style="stroke:none;fill-rule:nonzero;fill:#126298;fill-opacity:1"/></g></g><g clip-path="url(#e)"><g clip-path="url(#f)"><path d="M82.617 105.445h23.688v21.813H82.617Zm0 0" style="stroke:none;fill-rule:nonzero;fill:#126298;fill-opacity:1"/></g></g><g clip-path="url(#g)"><g clip-path="url(#h)"><path d="M91.023 122.332h10.7v9.856h-10.7Zm0 0" style="stroke:none;fill-rule:nonzero;fill:#126298;fill-opacity:1"/></g></g><g clip-path="url(#i)"><g clip-path="url(#j)"><g clip-path="url(#k)"><path d="m96.367 106.176 28.856-17.45 31.625 52.301-28.856 17.45Zm0 0" style="stroke:none;fill-rule:nonzero;fill:#126298;fill-opacity:1"/></g></g></g><g clip-path="url(#l)"><g clip-path="url(#m)"><g clip-path="url(#n)"><path d="m121.707 79.695 46.152 21.274-15.43 33.469-46.152-21.27Zm0 0" style="stroke:none;fill-rule:nonzero;fill:#126298;fill-opacity:1"/></g></g></g><g clip-path="url(#o)"><g clip-path="url(#p)"><path d="M101.71 81.336h50.853v50.852H101.71Zm0 0" style="stroke:none;fill-rule:nonzero;fill:#126298;fill-opacity:1"/></g></g><path d="M28.7 14.54c-2.18.398-3.63.87-5.387 1.753-5.196 2.613-8.977 7.281-10.704 13.21l-.554 1.907-.063 34.324c-.039 21.989.012 34.871.14 35.844.911 6.922 6.403 13.172 13.473 15.32.934.286 2.332.606 3.106.72 1.95.277 39.539.277 42.281-.005 2.758-.281 5.395-.86 8.164-1.793 1.246-.422 2.235-.707 2.196-.636-1.028 1.898-1.254 4.586-.559 6.64 1.02 3.012 3.57 5.235 6.394 5.57.551.063 1.083.172 1.18.243.102.07.352.578.559 1.129.48 1.285 2.246 3.152 3.61 3.82 3.187 1.559 7.265.789 9.753-1.844 1.496-1.582 2.059-2.953 2.164-5.277.078-1.711.113-1.856.375-1.504.676.894 1.543 2.902 2.582 5.96 1.938 5.708 3.176 7.653 6.785 10.665 2.485 2.07 3.094 2.703 4.864 5.043 1.273 1.687 2.597 3.824 4.203 6.805 1.726 3.203 2.703 3.921 5.312 3.925 3.707.004 12.016-2.55 18.61-5.714 3.695-1.778 6.187-3.368 7.722-4.938 1.797-1.836 1.953-2.945.887-6.215a67 67 0 0 1-1.094-3.699c-1.062-4.23-1.472-12.188-1.414-27.3.035-8.852-.004-10.673-.273-11.966-.711-3.414-2.27-6.25-5.309-9.664-1.55-1.738-2.77-2.922-12.742-12.343-5.68-5.364-6.543-6.31-6.805-7.426-.094-.414-.176-8.39-.18-17.719 0-10.71-.078-17.441-.21-18.266-.426-2.664-1.399-5.058-3.11-7.64-2.875-4.34-7.008-7.27-12.238-8.68l-1.61-.434-40.347-.039c-32.215-.03-40.633.016-41.762.223m1.617 3.621c-3.054.504-5.37 1.473-7.683 3.211-2.278 1.711-4.48 4.719-5.559 7.586-1.156 3.086-1.125 1.855-1.062 38.598l.054 33.71.465 1.5c.832 2.7 1.934 4.528 3.942 6.547 1.574 1.583 2.093 1.961 3.922 2.868 1.527.757 2.648 1.156 4.078 1.445 1.906.387 2.656.398 22.28.34l20.313-.059 2.196-.465c4.98-1.05 10.093-3.3 15.133-6.668 2.632-1.757 6.648-4.949 6.824-5.43.039-.1-.324-.616-.801-1.152-1.758-1.953-4.313-5.296-5.344-6.996-2.3-3.785-2.703-7.476-1.16-10.61.895-1.815 2.602-3.48 4.473-4.355 1.164-.546 1.636-.652 3.27-.714 4.269-.172 6.613 1.398 15.167 10.168l2.867 2.941.555-.3c.309-.169.945-.802 1.422-1.407 1.816-2.324 2.14-2.61 2.977-2.61.863 0 .214-.601 8.027 7.45 2.582 2.66 4.328 4.297 4.894 4.586.856.437.91.441 1.926.12 2.367-.745 3.715-.269 3.715 1.317 0 .883-.5 1.367-1.969 1.903-2.308.847-7.383 2.933-7.566 3.113-.203.203.996 1.433 4.871 5 1.617 1.488 1.855 1.789 1.855 2.367-.003.902-.757 1.648-1.68 1.648-1.25 0-2.894-1.539-19.077-17.867-13.524-13.64-14.258-14.316-16.235-14.972-1.957-.653-4.101-.016-5.562 1.652-1.024 1.164-1.399 2.184-1.399 3.785.004 2.531.86 4.242 4.106 8.211 4.484 5.484 9.676 11.238 13.008 14.426 5.445 5.203 6.183 6.46 7.636 13.035.508 2.285 1.203 4.883 1.547 5.77 1.254 3.261 4.457 7.308 7.238 9.16.754.5 2.407 1.398 3.672 1.996 1.27.597 2.403 1.265 2.52 1.48.328.617.25 1.157-.254 1.739-.594.695-1.629.703-3.293.027-4.066-1.652-4.887-1.004-2.96 2.332 2.144 3.719 4.624 7.574 4.937 7.676.941.297 6.554-1.11 11.015-2.762 4.727-1.75 10.328-4.687 12.094-6.34.695-.652.691-1.031-.043-3.422-1.621-5.308-1.957-9.816-2.203-29.539-.149-11.86-.164-12.18-.61-13.55-1.382-4.282-3.613-6.797-17.074-19.247-6.105-5.648-6.89-6.558-7.3-8.46-.075-.333-.172-8.524-.223-18.2-.098-18.992-.098-19.023-1.195-21.82-2.079-5.309-5.981-8.774-11.852-10.527-1.402-.422-1.469-.422-40.348-.461-31.472-.032-39.25.011-40.547.226m-4.515 26.48V61.22h6.62V50.98h2.192c4.246 0 7.297-1.023 9.438-3.164 3.258-3.257 4.101-9.074 1.965-13.57-.91-1.922-2.563-3.687-4.305-4.598-2.492-1.308-3.094-1.398-9.84-1.496l-6.07-.09Zm6.62-4.8v5.52h1.884c3.008 0 4.488-.735 5.453-2.708 1.203-2.457.824-5.015-1.012-6.851-1.25-1.25-1.934-1.477-4.465-1.48h-1.86Zm24.59-3.977c-4.019.535-6.804 2.98-8.183 7.188-.562 1.71-.723 7.953-.266 10.133.887 4.183 3.418 7.035 7.247 8.152 1.66.488 5.375.484 7.027 0 2.758-.813 4.848-2.477 5.863-4.676.496-1.082.926-3.094.692-3.27-.075-.054-1.555-.074-3.293-.042-2.891.054-3.164.093-3.164.422 0 .53-1.102 1.968-1.782 2.316-3 1.555-6.047-.797-6.047-4.668v-.84H69.36l-.004-3.16c-.003-3.488-.253-4.996-1.14-6.8-.672-1.372-2.426-3.138-3.766-3.794-1.836-.898-4.91-1.293-7.437-.96m22.062.16c-2.695.585-5.02 2.378-6.203 4.788-1.125 2.282-1.351 3.81-1.25 8.364.09 4.219.27 5.09 1.442 7.09.726 1.238 2.519 2.875 3.777 3.453 2.945 1.347 6.93.949 9.039-.903l.742-.652v1.219c0 1.836-.355 3.172-1.055 3.969-.824.941-1.468 1.242-2.984 1.386-1.098.106-1.406.055-2.172-.343-.91-.477-1.07-.665-1.41-1.622l-.195-.55H75.32c-1.918 0-3.535.047-3.59.105-.058.059-.023.578.082 1.152.403 2.239 2.172 4.551 4.305 5.633 1.887.957 3.176 1.215 5.988 1.207 2.957-.011 4.524-.336 6.38-1.32 1.48-.79 3.421-2.852 4.081-4.34 1.168-2.629 1.172-2.668 1.176-15.988l.004-12.246H87.56l-.282.851-.285.848-.637-.61c-1.683-1.609-4.289-2.144-7.28-1.492m24.644.02c-3.38.742-6.094 3.437-6.547 6.508-.074.496-.18 1.152-.238 1.453l-.106.555h3.125c3.11 0 3.129-.004 3.133-.454.008-.765.719-2.074 1.39-2.55.825-.586 2.278-.637 3.172-.106.723.426 1.2 1.422 1.258 2.614.07 1.507.16 1.43-1.761 1.574-5.168.39-8.707 2.25-10.157 5.343-.554 1.176-.613 1.504-.62 3.313-.013 2.668.394 3.816 1.898 5.336 1.496 1.52 2.843 2.031 5.34 2.039 1.566.004 2-.07 3.011-.531.649-.297 1.516-.864 1.922-1.262l.738-.719.13.782c.07.43.163.89.21 1.03.055.184.809.25 2.856.25h2.777l-.062-6.976c-.118-12.8-.11-12.62-.754-14.047-.625-1.39-1.942-2.761-3.317-3.465-1.86-.949-4.91-1.23-7.398-.687m-45.707 5.082a4.5 4.5 0 0 0-1.149.508c-.64.418-1.468 2.074-1.64 3.277l-.121.852h7.824l-.121-.953c-.16-1.25-.989-2.774-1.762-3.25-.723-.446-2.172-.653-3.031-.434m22.582 1.074c-.723.364-1.012.68-1.489 1.633-.523 1.047-.597 1.441-.675 3.43-.137 3.593.488 5.465 2.082 6.218 2.425 1.153 4.781.172 5.629-2.343.43-1.278.488-4.805.101-6.18-.773-2.762-3.25-3.969-5.648-2.758m26.304 7.82c-2.168.333-3.406 1.25-3.832 2.825-.804 2.988 2.442 4.793 4.645 2.586.852-.852 1.191-2.059 1.191-4.235 0-1.554.094-1.5-2.004-1.175M26.082 69.098c.262.578 2.426 5.109 4.813 10.066l4.34 9.008v13.191h6.808l.059-6.672.058-6.675 4.766-9.887c2.62-5.438 4.77-9.934 4.77-9.992 0-.055-1.633-.078-3.626-.047l-3.625.055-2.789 6.511c-2.426 5.656-2.816 6.446-2.976 6.02-.106-.27-1.293-3.11-2.64-6.309-1.352-3.203-2.5-5.933-2.556-6.074-.074-.188-1.066-.25-3.992-.25h-3.887Zm29.184 7.754c-3.582 1.18-5.97 4.175-5.977 7.5l-.004.753h5.977l.14-.753c.356-1.91 1.317-2.86 2.914-2.86 1.774 0 2.813 1.168 2.813 3.164v.969l-2.258.262c-5.059.59-8.105 2.32-9.566 5.433-.43.914-.532 1.47-.586 3.121-.082 2.422.328 3.762 1.601 5.207 2.45 2.782 7.328 2.989 10.164.426.883-.8.856-.816 1.149.637l.129.656h6.437l-.148-.453c-.078-.25-.207-4.473-.281-9.387-.13-8.66-.149-8.965-.594-10.086-.77-1.945-1.774-3.011-3.758-3.996l-1.738-.86-2.633-.058c-2.149-.043-2.848.016-3.781.325m2.761 13.57c-1.703.61-2.547 1.617-2.68 3.207-.074.933-.011 1.226.387 1.816.758 1.118 2.09 1.38 3.516.688 1.367-.664 1.758-1.492 1.848-3.95l.078-2.058-1.18.008c-.644.004-1.531.137-1.969.289m16.348 2.5c-1.723.523-2.844 1.758-3.21 3.539-.337 1.605.105 2.973 1.304 4.078 1.11 1.023 1.617 1.227 3.047 1.227 2.164 0 3.925-1.489 4.261-3.594.29-1.844-.218-3.336-1.492-4.387-1.12-.926-2.62-1.254-3.91-.863m21.68 12.683c-1.567 1.457-3.887 3.215-6.258 4.739-1.992 1.281-1.992 1.277-.442 2.644 1.922 1.688 3.2 1.52 5.825-.773 1.422-1.246 4.375-4.332 4.77-4.988.171-.286-1.954-2.856-2.356-2.844-.13.008-.82.555-1.54 1.222m-10.913 10.04c-2.258 2.632-1.434 6.671 1.64 8.043.973.437 3.008.519 3.961.16 1.88-.703 3.106-2.41 3.106-4.317 0-1.472-.211-1.648-2.106-1.754-1.887-.101-3.12-.64-4.719-2.058-.558-.496-1.05-.906-1.093-.906s-.399.374-.79.832m12.325 3.988c-.012 1.035-.5 2.695-1.086 3.691-.637 1.09-2.25 2.559-3.438 3.133-1.011.492-1.058.64-.515 1.531 1.246 2.043 4.172 2.633 6.316 1.274 1.137-.719 1.871-1.817 2.164-3.223.39-1.875-.176-3.16-2.785-6.328l-.644-.781Zm0 0" style="stroke:none;fill-rule:evenodd;fill:#ffde59;fill-opacity:1"/></svg>